<?xml version="1.0" encoding="UTF-8" standalone="no"?>
<!-- Created with Inkscape (http://www.inkscape.org/) -->

<svg
   xmlns:dc="http://purl.org/dc/elements/1.1/"
   xmlns:cc="http://creativecommons.org/ns#"
   xmlns:rdf="http://www.w3.org/1999/02/22-rdf-syntax-ns#"
   xmlns:svg="http://www.w3.org/2000/svg"
   xmlns="http://www.w3.org/2000/svg"
   version="1.1"
   width="220.65146"
   height="152.48421"
   id="svg2">
  <defs
     id="defs4" />
  <metadata
     id="metadata7">
    <rdf:RDF>
      <cc:Work
         rdf:about="">
        <dc:format>image/svg+xml</dc:format>
        <dc:type
           rdf:resource="http://purl.org/dc/dcmitype/StillImage" />
        <dc:title></dc:title>
      </cc:Work>
    </rdf:RDF>
  </metadata>
  <g
     transform="translate(-111.4041,-488.60419)"
     id="layer1">
    <g
       id="g3498">
      <g
         transform="matrix(0.09698623,-0.02297212,-0.02292675,-0.09717804,106.04642,680.52896)"
         id="g3286">
        <path
           d="m 758.149,1373.87 7.986,34.17 -137.31,-0.93 c -51.084,-0.34 -61.196,-39.09 -50.154,-56.41 l 4.598,-7.22 c 3.982,-6.24 3.868,-11.98 -6.546,-12.04 l -117.579,-0.74 c -23.993,-2.85 -43.359,-17.87 -48.605,-39.23 L 217.177,473.151 c -14.895,-54.581 33.145,-98.611 75.749,-98.825 l 1450.014,9.065 3.57,-74.105 32.54,0.209 27.15,52.341 2.48,-52.159 32.34,0.204 56.82,109.536 -32.38,-0.206 -27.15,-52.344 -2.48,52.163 -32.34,-0.034 -27.24,-52.516 -2.48,52.159 -1471.129,-9.27 c -32.431,0.381 -57.662,24.738 -47.803,59.062 l 188.565,797.579 c 4.356,17.83 16.1,31.32 44.103,31.36 l 93.98,0.59 c 46.067,0.29 63.212,30.6 49.573,50.17 l -4.44,6.37 c -5.829,8.35 -13.855,18.45 6.974,18.58 l 44.761,0.29 -17.797,-74.94 34.777,0.22 17.628,74.93 45.187,0.29 z"
           id="path3288"
           style="fill:none;stroke:#fff;stroke-width:9.30231953;stroke-linecap:butt;stroke-linejoin:miter;stroke-miterlimit:2.61310005;stroke-opacity:1;stroke-dasharray:none" />
      </g>
      <path
         d="m 157.82359,585.4199 -33.51029,8.15976 0,-46.32775 74.6774,-18.18959 -0.0268,8.38421 -58.20403,14.17453 0,4.90929 17.06369,-4.1555 0,13.3073 -17.07065,4.15382 0.007,6.40297 17.06369,-4.15575 0,13.33671"
         id="path3290"
         style="fill:#fff;fill-opacity:1;fill-rule:evenodd;stroke:none" />
      <path
         d="m 162.62581,584.25055 -0.007,-33.0424 12.41763,-3.0248 5.7872,11.36939 5.79441,-14.18893 12.34584,-3.00679 0,33.04445 -12.34584,3.00643 0,-11.85132 -5.79441,13.26217 -5.85946,-10.4245 0,11.85119 -12.33841,3.00511"
         id="path3292"
         style="fill:#fff;fill-opacity:1;fill-rule:evenodd;stroke:none" />
      <path
         d="m 200.85491,528.6122 -0.004,2.2722 3.17243,-0.7718 0,6.1024 4.22403,-1.02387 -0.009,-6.1048 4.07687,-0.99266 0,6.1024 3.79312,-0.92424 0,-3.62495 3.87018,-0.94225 3.6e-4,3.62495 3.7834,-0.92064 0,-8.3746 -3.7834,0.92064 0,3.23605 -3.87054,0.94225 0,-3.23485 -15.25385,3.71377"
         id="path3294"
         style="fill:#fff;fill-opacity:1;fill-rule:evenodd;stroke:none" />
      <path
         d="m 225.80132,522.53741 0,8.3746 9.59952,-2.33462 0,-2.57947 -5.34621,1.30834 0,-1.05508 5.34621,-1.29394 0,-1.5256 -5.34621,1.30474 0,-0.96265 5.34621,-1.30594 0.004,-2.2722 -9.60312,2.34182"
         id="path3296"
         style="fill:#fff;fill-opacity:1;fill-rule:evenodd;stroke:none" />
      <path
         d="m 238.62249,532.69928 12.949,-3.15323 0,33.04433 -12.949,3.15371 0,-33.04481"
         id="path3298"
         style="fill:#fff;fill-opacity:1;fill-rule:evenodd;stroke:none" />
      <path
         d="m 294.09988,519.18973 25.40588,-6.23805 0,9.00957 -12.45327,3.032 0,3.82061 12.45327,-3.032 0,5.99558 -12.45327,3.02599 -0.01,4.1903 12.46288,-3.02239 0,10.10306 -25.40228,6.17442 -0.004,-33.05909"
         id="path3300"
         style="fill:#fff;fill-opacity:1;fill-rule:evenodd;stroke:none" />
      <path
         d="m 238.62249,527.78639 -0.009,-8.365 80.88688,-19.70199 0.005,8.37941 -80.88327,19.68758"
         id="path3302"
         style="fill:#fff;fill-opacity:1;fill-rule:evenodd;stroke:none" />
      <path
         d="m 124.3133,612.51655 0,5.64761 12.65865,-3.08289 c 4.75853,-1.15855 3.77907,-7.60844 1.47878,-9.13369 l -3.65016,-2.79541 c -1.33211,-0.84959 -1.12997,-1.88438 0.0666,-2.17557 l 5.48352,-1.33583 0,-5.97998 -10.21444,2.48742 c -7.02785,1.71176 -6.64627,6.94395 -3.85686,9.0787 l 3.88459,2.96706 c 1.59461,0.97298 2.17316,2.36835 0.74264,2.712 l -6.59322,1.61058"
         id="path3304"
         style="fill:#fff;fill-opacity:1;fill-rule:evenodd;stroke:none" />
      <path
         d="m 146.39719,612.78662 7.09122,-1.72689 0,-14.61804 4.33518,-1.05592 0,-5.9795 -15.77239,3.84053 -0.008,5.9819 4.35354,-1.06012 0,14.61804"
         id="path3306"
         style="fill:#fff;fill-opacity:1;fill-rule:evenodd;stroke:none" />
      <path
         d="m 179.40215,584.15105 7.21594,-1.75726 0,20.59849 -7.21546,1.75691 -4.8e-4,-20.59814"
         id="path3308"
         style="fill:#fff;fill-opacity:1;fill-rule:evenodd;stroke:none" />
      <path
         d="m 223.76269,593.94683 0,-5.64809 -7.24882,1.76531 0,-2.6575 7.24882,-1.76531 0,-4.15285 -7.2493,1.76531 0,-2.15961 7.2493,-1.7653 0,-5.9801 -14.13047,3.44107 -0.004,20.59909 14.13421,-3.44202"
         id="path3310"
         style="fill:#fff;fill-opacity:1;fill-rule:evenodd;stroke:none" />
      <path
         d="m 299.70535,554.85591 -5.60547,1.36476 c -13.78323,3.4413 -10.71042,23.20605 2.43904,20.00409 l 3.16643,-0.7712 9.6e-4,-5.64808 -3.11001,0.75715 c -6.68456,1.628 -6.51772,-7.38229 -0.47773,-8.85316 l 3.58654,-0.87407 0,-5.97949"
         id="path3312"
         style="fill:#fff;fill-opacity:1;fill-rule:evenodd;stroke:none" />
      <path
         d="m 319.50576,574.37652 0,8.38157 -195.19246,47.5325 0,-8.38205 195.19246,-47.53202"
         id="path3314"
         style="fill:#fff;fill-opacity:1;fill-rule:evenodd;stroke:none" />
      <path
         d="m 189.34929,602.32695 -9.6e-4,-20.59754 6.38328,-1.55476 0,7.59199 4.07398,-8.58418 7.34161,-1.78739 -6.29649,13.23685 c 0,0.9893 1.39824,2.90608 3.17244,2.47421 l 3.12501,-0.76148 0.005,5.64664 -4.46973,1.08833 c -2.79074,0.67986 -4.64007,-1.45971 -6.95103,-3.95504 l -0.006,5.64905 -6.37763,1.55332"
         id="path3316"
         style="fill:#fff;fill-opacity:1;fill-rule:evenodd;stroke:none" />
      <path
         d="m 225.75966,587.81249 0,5.64809 12.65877,-3.0829 c 4.75805,-1.15854 3.67057,-7.45503 1.47879,-9.13355 l -3.65016,-2.79589 c -1.25433,-0.96026 -1.1307,-1.88403 0.066,-2.17558 l 5.48424,-1.33535 0,-5.98009 -10.21468,2.4874 c -7.02798,1.71142 -6.64868,6.94684 -3.85662,9.07884 l 3.88422,2.96658 c 1.48479,1.13418 2.17138,2.36306 0.7418,2.71235 l -6.59237,1.6101"
         id="path3318"
         style="fill:#fff;fill-opacity:1;fill-rule:evenodd;stroke:none" />
      <path
         d="m 301.64626,574.98088 -9.6e-4,-20.5979 6.38328,-1.55441 0,7.592 4.07507,-8.58346 7.40235,-1.80287 -6.35807,13.25148 c 0,0.98942 1.39837,2.90608 3.17243,2.47433 l 3.18564,-0.776 0,5.64809 -4.52519,1.10128 c -2.79073,0.67986 -4.63922,-1.45958 -6.95103,-3.95491 l -0.005,5.64904 -6.37848,1.55333"
         id="path3320"
         style="fill:#fff;fill-opacity:1;fill-rule:evenodd;stroke:none" />
      <g
         transform="matrix(0.09698623,-0.02297212,-0.02292675,-0.09717804,106.04642,680.52896)"
         id="g3322">
        <path
           d="m 823.728,1339.67 -24.286,-0.15 21.148,40.77 1.209,0 1.929,-40.62 z m -88.03,-40.77 56.668,109.34 65.158,0.41 5.064,-108.95 -37.053,-0.23 -0.761,18.1 -36.83,-0.22 -9.427,-18.19 -42.819,-0.26 z"
           id="path3324"
           style="fill:none;stroke:#fff;stroke-width:9.30231953;stroke-linecap:butt;stroke-linejoin:miter;stroke-miterlimit:2.61310005;stroke-opacity:1;stroke-dasharray:none" />
      </g>
      <path
         d="m 297.27863,594.74283 -5.4e-4,1.95534 2.13495,-0.50877 c 1.61808,-0.38602 1.80991,-2.39867 0.27131,-2.02736 l -2.40572,0.58079 z M 165.12807,524.533 l 1.2e-4,2.04188 2.12488,-0.5115 c 1.61664,-0.38908 1.7532,-2.45717 0.21336,-2.08937 l -2.33836,0.55899 z m 138.2185,73.80984 5.22253,-1.2682 c 1.0092,-0.2453 0.8882,-0.80592 0.35904,-1.32127 l -0.61165,-0.59586 c -1.46786,-1.4297 -1.37723,-5.43391 3.57149,-6.63428 l 8.51147,-2.06395 c 3.45124,-0.83705 3.32523,-3.04664 3.32607,-5.89053 l 0.005,-79.88651 c 6.7e-4,-3.53912 -1.30651,-5.84602 -4.99715,-4.94723 l -148.00416,36.04125 c -0.96722,0.23525 -1.59607,0.0856 -2.68768,-0.50543 l -2.91304,-1.57562 -0.009,3.44667 -3.74816,0.91241 -0.005,-11.19745 7.42558,-1.79781 c 4.26914,-1.03376 4.24974,5.07809 1.83236,6.51053 -0.72436,0.42912 -0.32548,0.8641 0.56274,0.64858 l 147.17733,-35.84027 c 5.36598,-1.3069 8.8413,2.06868 8.8416,7.24828 l 10e-4,83.38837 c -5e-5,2.58677 -0.48627,5.50459 -4.62822,6.51315 l -9.42375,2.29469 c -2.01632,0.49072 -1.03183,1.18676 -0.27489,1.86456 l 0.5767,0.51722 c 1.77139,1.58766 0.83507,4.96762 -3.62689,6.05218 l -6.951,1.68982 c -0.96759,0.23503 -1.58505,0.0399 -2.6766,-0.55002 l -2.92416,-1.5776 0.012,3.48871 -3.76911,0.91779 -0.005,-11.22254 7.43578,-1.81838 c 4.26576,-1.04374 4.24879,5.07841 1.83192,6.51042 -0.72409,0.42937 -0.32557,0.86412 0.56258,0.64832 z"
         id="path3328"
         style="fill:none;stroke:#fff;stroke-width:0.9279784;stroke-linecap:butt;stroke-linejoin:miter;stroke-miterlimit:2.61310005;stroke-opacity:1;stroke-dasharray:none" />
      <g
         transform="matrix(0.09698623,-0.02297212,-0.02292675,-0.09717804,106.04642,680.52896)"
         id="g3330">
        <path
           d="m 1956.34,351.019 -24.29,-0.155 21.15,40.769 1.21,0.005 1.93,-40.619 z m -88.04,-40.963 56.68,109.532 65.15,0.409 5.06,-108.956 -37.04,-0.231 -0.76,18.109 -36.84,-0.228 -9.43,-18.185 -42.82,-0.45 z"
           id="path3332"
           style="fill:none;stroke:#fff;stroke-width:9.30231953;stroke-linecap:butt;stroke-linejoin:miter;stroke-miterlimit:2.61310005;stroke-opacity:1;stroke-dasharray:none" />
      </g>
      <path
         d="m 204.02315,574.16923 0,-33.04374 20.42361,-4.9657 c 12.28643,-2.98759 17.66985,18.65531 2.59148,22.32707 l -10.52485,2.56292 0,10.07785 -12.49024,3.0416 z m 12.49024,-27.12858 0,4.34994 6.09592,-1.48479 c 2.54083,-0.61816 3.36833,-5.16856 -0.77599,-4.16029 l -5.31993,1.29514"
         id="path3334"
         style="fill:#fff;fill-opacity:1;fill-rule:evenodd;stroke:none" />
      <path
         d="m 269.02288,534.25489 0,4.34874 6.09521,-1.48479 c 2.54106,-0.61816 3.36928,-5.16856 -0.77541,-4.16029 l -5.3198,1.29634 z m -12.78096,27.19855 0,-33.04409 21.20478,-5.16376 c 14.40619,-3.50852 15.9738,15.9594 3.84221,20.40777 -1.33835,0.49093 -0.88944,1.83888 1.23632,1.32155 l 6.89702,-1.68044 0.009,10.07665 -8.12014,1.99732 c -2.70551,0.66498 -4.74364,-0.45492 -6.35327,-1.86769 l -5.95956,-5.23218 0,10.07905 -12.75576,3.10582"
         id="path3336"
         style="fill:#fff;fill-opacity:1;fill-rule:evenodd;stroke:none" />
      <path
         d="m 275.23692,574.04127 3.18563,-0.77601 -1.36235,-4.75528 -0.46213,0.11198 -1.36115,5.41931 z m -8.28578,9.38876 5.50585,-21.93866 8.73949,-2.12828 5.52026,19.25391 -6.31486,1.53748 -0.90024,-3.12599 -5.34141,1.29034 -0.89303,3.57275 -6.31606,1.53845"
         id="path3338"
         style="fill:#fff;fill-opacity:1;fill-rule:evenodd;stroke:none" />
      <path
         d="m 256.24192,580.38986 0,-2.6581 1.63963,-0.39946 c 2.54467,-0.61936 2.08015,2.15168 0.66978,2.49533 l -2.30941,0.56223 z m 0,-8.97008 2.01533,-0.49093 c 1.64683,-0.4009 1.40797,1.81644 0.45492,2.04906 l -2.47025,0.601 0,-2.15913 z m -7.40955,-4.17577 -0.004,20.59849 12.86979,-3.13342 c 6.56212,-1.59834 5.88634,-9.73948 2.03453,-10.87078 4.566,-3.19549 0.62176,-10.37385 -5.58987,-8.86181 l -9.31085,2.26752"
         id="path3340"
         style="fill:#fff;fill-opacity:1;fill-rule:evenodd;stroke:none" />
      <path
         d="m 165.7434,593.45734 3.15827,-0.76905 c 2.77345,-0.67517 2.20234,1.62332 0.41446,2.05843 l -3.57273,0.87023 0,-2.15961 z m -6.38328,16.17233 -9.6e-4,-20.59754 9.48069,-2.3088 c 8.95304,-2.18026 12.36277,8.77407 4.4144,12.27515 -1.94439,0.85618 -0.70002,1.76387 0.63113,1.44134 l 3.2741,-0.79245 0.005,5.64665 -4.46974,1.08867 c -2.79121,0.67938 -4.63994,-1.45958 -6.95151,-3.95491 l -0.005,5.64905 -6.37811,1.55284"
         id="path3342"
         style="fill:#fff;fill-opacity:1;fill-rule:evenodd;stroke:none" />
    </g>
  </g>
</svg>
